<svg width="1031" height="804" viewBox="0 0 1031 804" fill="none" xmlns="http://www.w3.org/2000/svg">
<g opacity="0.4">
<g opacity="0.5">
<line x1="39.5859" y1="803.997" x2="39.5859" stroke="black"/>
<line x1="330.581" y1="803.998" x2="330.581" y2="0.00170898" stroke="black"/>
<line x1="253.378" y1="803.998" x2="253.378" y2="0.00170898" stroke="black"/>
<line x1="182.114" y1="803.998" x2="182.114" y2="0.00170898" stroke="black"/>
<line x1="109.365" y1="803.998" x2="109.365" y2="0.00170898" stroke="black"/>
<line x1="919.994" y1="803.998" x2="919.994" y2="0.00170898" stroke="black"/>
<line x1="844.276" y1="804" x2="844.276" y2="0.00341797" stroke="black"/>
<line x1="989.773" y1="804" x2="989.773" y2="0.00341797" stroke="black"/>
<line x1="476.078" y1="803.998" x2="476.078" y2="0.00170898" stroke="black"/>
<line x1="767.073" y1="804" x2="767.073" y2="0.00341797" stroke="black"/>
<line x1="689.87" y1="804" x2="689.87" y2="0.00341797" stroke="black"/>
<line x1="400.36" y1="804" x2="400.36" y2="0.00341797" stroke="black"/>
<line x1="618.606" y1="804" x2="618.606" y2="0.00341797" stroke="black"/>
<line x1="545.858" y1="804" x2="545.858" y2="0.00341797" stroke="black"/>
</g>
<g opacity="0.5">
<line x1="1030.36" y1="798.703" y2="798.703" stroke="black"/>
<line x1="1030.37" y1="571.638" x2="0.00219727" y2="571.638" stroke="black"/>
<line x1="1030.37" y1="631.88" x2="0.00219727" y2="631.88" stroke="black"/>
<line x1="1030.37" y1="687.487" x2="0.00219727" y2="687.487" stroke="black"/>
<line x1="1030.37" y1="744.253" x2="0.00219727" y2="744.253" stroke="black"/>
<line x1="1030.37" y1="111.717" x2="0.00219727" y2="111.717" stroke="black"/>
<line x1="1030.37" y1="170.8" x2="0.00439453" y2="170.8" stroke="black"/>
<line x1="1030.37" y1="0.501953" x2="0.00439453" y2="0.501953" stroke="black"/>
<line x1="1030.37" y1="57.2681" x2="0.00439453" y2="57.2681" stroke="black"/>
<line x1="1030.37" y1="458.106" x2="0.00219727" y2="458.106" stroke="black"/>
<line x1="1030.37" y1="231.042" x2="0.00439453" y2="231.042" stroke="black"/>
<line x1="1030.37" y1="291.283" x2="0.00439453" y2="291.283" stroke="black"/>
<line x1="1030.37" y1="517.189" x2="0.00439453" y2="517.189" stroke="black"/>
<line x1="1030.37" y1="346.891" x2="0.00439453" y2="346.891" stroke="black"/>
<line x1="1030.37" y1="403.657" x2="0.00439453" y2="403.657" stroke="black"/>
</g>
</g>
</svg>
